<svg width="57" height="56" viewBox="0 0 57 56" fill="none" xmlns="http://www.w3.org/2000/svg">
<path d="M12.6885 12.4445H43.7996V43.5556H12.6885V12.4445Z" fill="#017ACB"/>
<path d="M27.6266 23.9653H29.1189V26.5417H25.0842V38.0042L24.9773 38.0334C24.8314 38.0723 22.9113 38.0723 22.4981 38.0285L22.1675 37.9994V26.5417H18.1328V23.9653L19.4113 23.9508C20.1113 23.941 21.9099 23.941 23.4071 23.9508C24.9044 23.9605 26.8002 23.9653 27.6266 23.9653ZM39.0162 36.7889C38.4231 37.416 37.7863 37.766 36.7266 38.0528C36.2648 38.1792 36.187 38.1841 35.1467 38.1792C34.1065 38.1744 34.0238 38.1744 33.5183 38.0431C32.2106 37.7077 31.1558 37.0515 30.4363 36.123C30.2321 35.8605 29.8967 35.316 29.8967 35.248C29.8967 35.2285 29.9453 35.1848 30.0085 35.1556C30.0717 35.1265 30.203 35.0438 30.3099 34.9806C30.4169 34.9174 30.6113 34.8008 30.7426 34.7327C30.8738 34.6646 31.253 34.441 31.5835 34.2417C31.9141 34.0424 32.2155 33.882 32.2495 33.882C32.2835 33.882 32.3467 33.9501 32.3953 34.0327C32.687 34.5237 33.3676 35.1508 33.8488 35.3646C34.1453 35.491 34.8016 35.632 35.1176 35.632C35.4092 35.632 35.944 35.5056 36.2308 35.3744C36.537 35.2334 36.6926 35.0924 36.8773 34.8105C37.0037 34.6112 37.0183 34.5577 37.0134 34.1785C37.0134 33.8285 36.994 33.7313 36.8967 33.5709C36.6245 33.1237 36.2551 32.8903 34.7578 32.2292C33.212 31.5438 32.5169 31.1355 31.953 30.5862C31.5349 30.1778 31.4523 30.066 31.1898 29.5556C30.8495 28.8994 30.8058 28.6855 30.8009 27.7084C30.796 27.023 30.8106 26.7994 30.8835 26.566C30.9856 26.216 31.3162 25.5403 31.4669 25.3702C31.778 25.0056 31.8898 24.8938 32.1085 24.714C32.7696 24.1695 33.8002 23.8098 34.787 23.7758C34.8988 23.7758 35.2683 23.7952 35.6134 23.8195C36.6051 23.9021 37.2808 24.1452 37.9322 24.6653C38.4231 25.0542 39.1669 25.9681 39.094 26.0896C39.0453 26.1626 37.1058 27.4556 36.9794 27.4945C36.9016 27.5188 36.8481 27.4896 36.7412 27.3633C36.0801 26.5709 35.8127 26.4008 35.171 26.3619C34.7141 26.3327 34.471 26.3862 34.1648 26.5903C33.8439 26.8042 33.6884 27.1299 33.6884 27.582C33.6933 28.2431 33.946 28.5542 34.8794 29.016C35.4821 29.3126 35.9974 29.5556 36.0363 29.5556C36.0946 29.5556 37.344 30.1778 37.6697 30.3723C39.1863 31.2619 39.8037 32.1758 39.9641 33.7508C40.0808 34.9369 39.7453 36.0209 39.0162 36.7889Z" fill="white"/>
</svg>
