<svg width="66" height="20" viewBox="0 0 66 20" fill="none" xmlns="http://www.w3.org/2000/svg">
<g clip-path="url(#clip0_17_5345)">
<path d="M7.34236 3.73376V9.03063H2.56792V3.73376H0.302734V16.3781H2.56854V11.2531H7.34174V16.3781H9.60816V3.73376H7.34236ZM16.8606 12.2913C16.8606 12.7981 16.663 13.2841 16.3114 13.6425C15.9598 14.0009 15.4829 14.2022 14.9857 14.2022C14.4884 14.2022 14.0115 14.0009 13.6599 13.6425C13.3083 13.2841 13.1108 12.7981 13.1108 12.2913V6.875H10.9615V12.2913C10.9615 13.378 11.385 14.4202 12.139 15.1886C12.8929 15.9571 13.9155 16.3888 14.9817 16.3888C16.0479 16.3888 17.0705 15.9571 17.8244 15.1886C18.5783 14.4202 19.0019 13.378 19.0019 12.2913V6.875H16.8606V12.2913ZM32.7862 7.43313C32.7862 6.3225 33.5067 5.97064 34.2959 5.97064C34.9324 5.97064 35.7725 6.46438 36.3225 7.06313L37.7299 5.37189C37.0271 4.40314 35.602 3.73376 34.4351 3.73376C32.1031 3.73376 30.4167 5.12564 30.4167 7.43313C30.4167 11.7144 35.5505 10.3556 35.5505 12.7519C35.5505 13.4906 34.8466 14.1431 34.0408 14.1431C32.7696 14.1431 32.3575 13.51 31.7738 12.84L30.2113 14.4956C31.2108 15.7456 32.4434 16.3806 33.9194 16.3806C36.1349 16.3806 37.9169 14.9719 37.9169 12.7694C37.9169 8.01688 32.7825 9.49375 32.7825 7.43313H32.7862ZM64.5466 14.3581C63.2767 14.3581 62.9155 13.7981 62.9155 12.9406V9.14375H64.89V7.22H62.9155V4.68189L60.7362 5.67876V13.4125C60.7362 15.3906 62.0754 16.3875 63.9114 16.3875C64.1996 16.3925 64.4878 16.3688 64.7711 16.3175L65.3027 14.3225C65.063 14.3394 64.7876 14.3563 64.5466 14.3563V14.3581ZM25.042 6.93813C23.9775 6.93813 23.2342 7.25313 22.5156 7.97125V3.80939H20.3632V11.5238C20.3632 14.4113 22.4113 16.39 24.7133 16.39C27.2667 16.39 29.5129 14.3763 29.5129 11.665C29.5129 8.9875 27.4458 6.94 25.042 6.94V6.93813ZM25.0285 14.1819C24.7077 14.1819 24.3901 14.1175 24.0937 13.9924C23.7974 13.8673 23.528 13.6839 23.3012 13.4527C23.0744 13.2215 22.8945 12.947 22.7717 12.6449C22.6489 12.3429 22.5858 12.0191 22.5858 11.6922C22.5858 11.3653 22.6489 11.0415 22.7717 10.7394C22.8945 10.4374 23.0744 10.1629 23.3012 9.93175C23.528 9.70056 23.7974 9.51713 24.0937 9.392C24.3901 9.26694 24.7077 9.2025 25.0285 9.2025C25.6763 9.2025 26.2976 9.46481 26.7558 9.93175C27.2138 10.3986 27.4712 11.0319 27.4712 11.6922C27.4712 12.3525 27.2138 12.9858 26.7558 13.4527C26.2976 13.9196 25.6763 14.1819 25.0285 14.1819ZM48.4174 11.55C48.4174 8.83375 46.1762 6.825 43.6179 6.825C41.3165 6.825 39.2678 8.80313 39.2678 11.6913V19.41H41.4201V15.2425C42.1376 15.9594 42.882 16.2756 43.9453 16.2756C46.3491 16.2756 48.4168 14.2281 48.4168 11.55H48.4174ZM46.3791 11.5225C46.3791 12.1828 46.1218 12.8161 45.6637 13.283C45.2056 13.7499 44.5843 14.0122 43.9364 14.0122C43.2886 14.0122 42.6673 13.7499 42.2092 13.283C41.7511 12.8161 41.4937 12.1828 41.4937 11.5225C41.4937 10.8622 41.7511 10.2289 42.2092 9.76206C42.6673 9.29513 43.2886 9.03281 43.9364 9.03281C44.5843 9.03281 45.2056 9.29513 45.6637 9.76206C46.1218 10.2289 46.3791 10.8622 46.3791 11.5225Z" fill="#33475B"/>
<path d="M55.3724 6.71875V4.51441C55.6582 4.37826 55.9001 4.16218 56.0701 3.89132C56.2402 3.62045 56.3312 3.30594 56.3326 2.98441V2.93378C56.3326 1.99628 55.587 1.23628 54.6672 1.23628H54.6175C54.1758 1.23628 53.7521 1.41512 53.4398 1.73346C53.1275 2.05181 52.952 2.48357 52.952 2.93378V2.98441C52.9535 3.30594 53.0445 3.62045 53.2145 3.89132C53.3845 4.16218 53.6265 4.37826 53.9123 4.51441V6.71875C53.0909 6.847 52.3172 7.19412 51.6698 7.725L45.7382 3.01628C45.7806 2.86066 45.8026 2.70066 45.8051 2.54003C45.8058 2.16172 45.6964 1.79169 45.4908 1.47674C45.2851 1.16179 44.9925 0.916081 44.6499 0.770681C44.3072 0.625275 43.9299 0.586723 43.5658 0.659893C43.2016 0.733056 42.8669 0.914662 42.604 1.18173C42.3411 1.4488 42.1618 1.78933 42.0889 2.16026C42.0159 2.53118 42.0525 2.91584 42.194 3.26556C42.3356 3.61529 42.5757 3.91437 42.884 4.12499C43.1923 4.3356 43.555 4.44828 43.9262 4.44878C44.2509 4.44722 44.5696 4.35886 44.8503 4.19253L50.6911 8.825C50.1664 9.63294 49.8927 10.5833 49.9056 11.552C49.9185 12.5208 50.2174 13.4632 50.7635 14.2562L48.987 16.0675C48.8434 16.0208 48.6938 15.9959 48.5431 15.9937C48.2384 15.994 47.9406 16.0863 47.6874 16.259C47.4341 16.4317 47.2368 16.677 47.1204 16.9639C47.0038 17.2509 46.9734 17.5666 47.033 17.8711C47.0925 18.1757 47.2392 18.4554 47.4546 18.675C47.6701 18.8946 47.9445 19.0441 48.2433 19.1048C48.5421 19.1654 48.8519 19.1344 49.1334 19.0157C49.415 18.897 49.6556 18.6959 49.825 18.4377C49.9945 18.1797 50.085 17.8762 50.0853 17.5656C50.0833 17.412 50.0589 17.2595 50.0129 17.1131L51.7704 15.3212C52.3435 15.771 53.0099 16.081 53.7187 16.2276C54.4275 16.3742 55.1599 16.3535 55.8596 16.1671C56.5593 15.9807 57.208 15.6334 57.7557 15.1521C58.3035 14.6707 58.7359 14.0679 59.0198 13.3899C59.3036 12.7119 59.4315 11.9767 59.3935 11.2406C59.3556 10.5044 59.1528 9.78687 58.8007 9.14294C58.4486 8.499 57.9567 7.94575 57.3624 7.52556C56.7681 7.10537 56.0874 6.82937 55.3724 6.71875ZM54.6439 13.9688C54.319 13.9779 53.9958 13.9206 53.6931 13.8001C53.3904 13.6798 53.1145 13.4988 52.8816 13.2678C52.6487 13.0369 52.4635 12.7608 52.3372 12.4556C52.2107 12.1506 52.1456 11.8228 52.1456 11.4916C52.1456 11.1604 52.2107 10.8326 52.3372 10.5276C52.4635 10.2224 52.6487 9.94631 52.8816 9.71537C53.1145 9.48444 53.3904 9.30344 53.6931 9.183C53.9958 9.06262 54.319 9.00531 54.6439 9.01437C55.2734 9.03687 55.8697 9.30744 56.3074 9.76919C56.745 10.2309 56.9898 10.8477 56.9901 11.4897C56.9904 12.1318 56.7463 12.7488 56.3091 13.211C55.8719 13.6732 55.2758 13.9444 54.6463 13.9675" fill="#FF7A59"/>
</g>
<defs>
<clipPath id="clip0_17_5345">
<rect width="65" height="20" fill="white" transform="translate(0.302734)"/>
</clipPath>
</defs>
</svg>
