<svg width="60" height="20" viewBox="0 0 60 20" fill="none" xmlns="http://www.w3.org/2000/svg">
<g clip-path="url(#clip0_17_5343)">
<path d="M1.23506 0.862559L12.6833 0.0452233C14.0895 -0.0714434 14.4509 0.00722333 15.3351 0.628557L18.9895 3.11723C19.5923 3.54523 19.793 3.66189 19.793 4.12789V17.7766C19.793 18.6319 19.4716 19.1379 18.3468 19.2153L5.0523 19.9933C4.20817 20.0319 3.8061 19.9153 3.36403 19.3706L0.672993 15.9879C0.190234 15.3653 -0.00976562 14.8993 -0.00976562 14.3546V2.22256C-0.00976562 1.52323 0.311614 0.939892 1.23506 0.862559Z" fill="white"/>
<path fill-rule="evenodd" clip-rule="evenodd" d="M12.6833 0.0452233L1.23506 0.862559C0.311614 0.939892 -0.00976562 1.52323 -0.00976562 2.22256V14.3546C-0.00976562 14.8993 0.190234 15.3653 0.672993 15.9879L3.36403 19.3706C3.8061 19.9153 4.20817 20.0319 5.0523 19.9933L18.3468 19.2153C19.4709 19.1379 19.793 18.6319 19.793 17.7766V4.12789C19.793 3.68589 19.6123 3.55856 19.0806 3.18123C19.05 3.15992 19.0194 3.13859 18.9889 3.11723L15.3351 0.628557C14.4509 0.00722333 14.0895 -0.0714434 12.6833 0.0452233ZM5.35299 3.90456C4.26748 3.97523 4.02127 3.99123 3.40472 3.50656L1.83713 2.30123C1.67782 2.14523 1.75782 1.95056 2.1592 1.91189L13.1647 1.13456C14.0889 1.05656 14.5702 1.36789 14.9316 1.63989L16.8192 2.96189C16.8999 3.00123 17.1006 3.23389 16.8592 3.23389L5.49368 3.89523L5.35299 3.90456ZM4.08748 17.6599V6.07323C4.08748 5.56722 4.24817 5.33389 4.72954 5.29456L17.7833 4.55589C18.2261 4.51723 18.4261 4.78923 18.4261 5.29456V16.8039C18.4261 17.3099 18.3454 17.7379 17.6226 17.7766L5.13092 18.4766C4.40816 18.5153 4.08748 18.2826 4.08748 17.6599ZM16.4185 6.69459C16.4985 7.04459 16.4185 7.39459 16.0564 7.43459L15.4544 7.54992V16.1046C14.9316 16.3766 14.4502 16.5319 14.0482 16.5319C13.4054 16.5319 13.2447 16.3373 12.7633 15.7546L8.8261 9.76659V15.5599L10.0716 15.8326C10.0716 15.8326 10.0716 16.5326 9.06679 16.5326L6.29644 16.6879C6.21575 16.5319 6.29644 16.1433 6.57713 16.0659L7.30058 15.8719V8.21192L6.29644 8.13325C6.21575 7.78325 6.41644 7.27792 6.9792 7.23859L9.95161 7.04525L14.0482 13.1106V7.74459L13.004 7.62859C12.9233 7.19992 13.2447 6.88859 13.6461 6.85059L16.4185 6.69459Z" fill="black"/>
<path d="M28.5657 14.1673V8.89396H28.6601L32.5939 14.1673H33.8326V6.41799H32.4553V11.686H32.3608L28.427 6.41799H27.1836V14.1666H28.5664L28.5657 14.1673ZM37.725 14.286C39.5422 14.286 40.6477 13.1366 40.6477 11.23C40.6477 9.32863 39.5367 8.17396 37.725 8.17396C35.9195 8.17396 34.8029 9.33396 34.8029 11.23C34.8029 13.1366 35.9029 14.286 37.725 14.286ZM37.725 13.1686C36.7643 13.1686 36.2146 12.46 36.2146 11.23C36.2146 10.0053 36.7643 9.2913 37.725 9.2913C38.6808 9.2913 39.2305 10.0053 39.2305 11.23C39.2305 12.46 38.6864 13.1686 37.725 13.1686ZM41.9064 6.8533V8.32996H40.9457V9.3933H41.9064V12.5993C41.9064 13.738 42.4622 14.1946 43.8567 14.1946C44.1229 14.1946 44.3788 14.168 44.5788 14.13V13.088C44.4119 13.104 44.3064 13.1146 44.1119 13.1146C43.5346 13.1146 43.2788 12.8573 43.2788 12.2773V9.3933H44.5788V8.32996H43.2788V6.85263H41.9064V6.8533ZM45.4043 14.1673H46.7767V8.29196H45.4043V14.1673ZM46.0877 7.32063C46.5429 7.32063 46.9098 6.9653 46.9098 6.51999C46.9098 6.07399 46.5436 5.71399 46.0877 5.71399C45.6381 5.71399 45.2657 6.07399 45.2657 6.51999C45.2657 6.9653 45.6381 7.31996 46.0877 7.31996V7.32063ZM50.5415 14.286C52.3581 14.286 53.4636 13.1366 53.4636 11.23C53.4636 9.32863 52.3526 8.17396 50.5415 8.17396C48.7353 8.17396 47.6188 9.33396 47.6188 11.23C47.6188 13.1366 48.7188 14.286 50.5415 14.286ZM50.5415 13.1686C49.5801 13.1686 49.0298 12.46 49.0298 11.23C49.0298 10.0053 49.5801 9.2913 50.5415 9.2913C51.4967 9.2913 52.047 10.0053 52.047 11.23C52.047 12.46 51.5022 13.1686 50.5415 13.1686ZM54.2836 14.1673H55.6615V10.7466C55.6615 9.88196 56.1788 9.33396 57.0001 9.33396C57.8395 9.33396 58.2277 9.7853 58.2277 10.682V14.1673H59.6064V10.3653C59.6064 8.9633 58.867 8.17396 57.5119 8.17396C56.6057 8.17396 55.9946 8.57663 55.7057 9.23196H55.6112V8.29196H54.2836V14.1673Z" fill="black"/>
</g>
<defs>
<clipPath id="clip0_17_5343">
<rect width="60" height="20" fill="white" transform="translate(-0.00976562)"/>
</clipPath>
</defs>
</svg>
