<svg width="34" height="34" viewBox="0 0 34 34" fill="none" xmlns="http://www.w3.org/2000/svg">
<path d="M0.521484 0.265625V33.4688H33.7246V0.265625H0.521484ZM18.0843 28.5581C17.5943 29.554 16.6587 30.2082 15.5747 30.524C13.909 30.9065 12.3158 30.6885 11.1305 29.9771C10.3374 29.4905 9.71795 28.7414 9.29747 27.8784L11.8262 26.3298C11.8483 26.3391 11.9147 26.4592 12.0034 26.6143C12.3259 27.1546 12.604 27.5371 13.1506 27.8056C13.6877 27.9889 14.8668 28.106 15.3221 27.161C15.6002 26.6802 15.5118 25.1348 15.5118 23.4249C15.5115 20.7381 15.524 18.0625 15.524 15.4062H18.6342C18.6342 18.3281 18.6501 21.0954 18.6342 23.9466C18.6408 25.6944 18.7925 27.2526 18.0843 28.5581ZM30.9868 27.6795C29.9057 31.3775 23.8782 31.4975 21.4695 29.0543C20.9605 28.4792 20.6415 28.1788 20.3379 27.515C21.618 26.7787 21.618 26.7787 22.8635 26.0581C23.54 27.098 24.1656 27.6699 25.291 27.9039C26.8178 28.0904 28.3539 27.5658 28.0094 25.9441C27.6553 24.6197 24.883 24.2975 22.9963 22.8812C21.0809 21.5948 20.632 18.4689 22.206 16.6828C22.7307 16.0222 23.6253 15.5292 24.564 15.2923L25.5436 15.1656C27.4245 15.1276 28.6002 15.6243 29.4632 16.588C29.7033 16.8313 29.8993 17.0938 30.2659 17.6625C29.264 18.301 29.2672 18.2949 27.832 19.2241C27.5255 18.5637 27.0168 18.1494 26.4792 17.9693C25.6446 17.7164 24.5922 17.9913 24.3738 18.8732C24.2981 19.1449 24.3138 19.3978 24.4341 19.8467C24.7723 20.6178 25.907 20.953 26.9249 21.4208C29.855 22.6092 30.8444 23.8834 31.0877 25.4001C31.322 26.7059 31.0312 27.553 30.9868 27.6795Z" fill="#F0DB4F"/>
</svg>
