<svg width="57" height="56" viewBox="0 0 57 56" fill="none" xmlns="http://www.w3.org/2000/svg">
<path d="M28.244 18.6692C24.0958 18.6692 21.5032 20.7427 20.4661 24.8895C22.0218 22.8159 23.8367 22.0386 25.9106 22.5568C27.094 22.8525 27.9398 23.7111 28.8762 24.6611C30.4012 26.2087 32.1663 27.9998 36.022 27.9998C40.1699 27.9998 42.7628 25.9262 43.7996 21.7791C42.2442 23.8527 40.4294 24.6304 38.355 24.1122C37.172 23.8165 36.3262 22.9579 35.3898 22.0079C33.8648 20.4603 32.0994 18.6692 28.244 18.6692ZM20.4661 27.9998C16.3182 27.9998 13.7253 30.0733 12.6885 34.2204C14.2438 32.1469 16.0587 31.3692 18.133 31.8878C19.3161 32.1838 20.1618 33.0421 21.0982 33.9917C22.6233 35.5393 24.3887 37.3308 28.244 37.3308C32.3923 37.3308 34.9848 35.2572 36.022 31.1101C34.4663 33.1837 32.6514 33.9613 30.5775 33.4428C29.394 33.1475 28.5483 32.2885 27.6119 31.3389C26.0868 29.7913 24.3218 27.9998 20.4661 27.9998Z" fill="#06B6D4"/>
</svg>
