<svg width="57" height="56" viewBox="0 0 57 56" fill="none" xmlns="http://www.w3.org/2000/svg">
<path d="M28.1463 30.7429C29.6696 30.7429 30.9045 29.5149 30.9045 28C30.9045 26.4852 29.6696 25.2572 28.1463 25.2572C26.623 25.2572 25.3882 26.4852 25.3882 28C25.3882 29.5149 26.623 30.7429 28.1463 30.7429Z" fill="#61DAFB"/>
<path fill-rule="evenodd" clip-rule="evenodd" d="M15.1777 26.5567C14.5523 27.1182 14.3467 27.6078 14.3467 27.9999C14.3467 28.3921 14.5523 28.8817 15.1777 29.4431C15.8028 30.0043 16.7637 30.5554 18.0364 31.0386C20.5748 32.0024 24.149 32.6194 28.1465 32.6194C32.144 32.6194 35.7182 32.0024 38.2566 31.0386C39.5293 30.5554 40.4902 30.0043 41.1153 29.4431C41.7408 28.8817 41.9464 28.3921 41.9464 27.9999C41.9464 27.6078 41.7408 27.1182 41.1153 26.5567C40.4902 25.9956 39.5293 25.4445 38.2566 24.9613C35.7182 23.9974 32.144 23.3805 28.1465 23.3805C24.149 23.3805 20.5748 23.9974 18.0364 24.9613C16.7637 25.4445 15.8028 25.9956 15.1777 26.5567ZM17.3265 23.0915C20.1446 22.0215 23.9703 21.3805 28.1465 21.3805C32.3228 21.3805 36.1485 22.0215 38.9666 23.0915C40.3721 23.6252 41.5786 24.285 42.4513 25.0685C43.3237 25.8516 43.9464 26.8403 43.9464 27.9999C43.9464 29.1596 43.3237 30.1483 42.4513 30.9314C41.5786 31.7149 40.3721 32.3747 38.9666 32.9084C36.1485 33.9784 32.3228 34.6194 28.1465 34.6194C23.9703 34.6194 20.1446 33.9784 17.3265 32.9084C15.921 32.3747 14.7145 31.7149 13.8417 30.9314C12.9694 30.1483 12.3467 29.1596 12.3467 27.9999C12.3467 26.8403 12.9694 25.8516 13.8417 25.0685C14.7145 24.285 15.921 23.6252 17.3265 23.0915Z" fill="#61DAFB"/>
<path fill-rule="evenodd" clip-rule="evenodd" d="M22.9269 16.1116C22.1262 15.854 21.5943 15.9204 21.2485 16.1189C20.9028 16.3174 20.579 16.7423 20.403 17.5607C20.227 18.3791 20.2275 19.4814 20.4428 20.8183C20.8724 23.4848 22.1217 26.8701 24.1198 30.3118C26.118 33.7534 28.4415 36.5219 30.5488 38.2252C31.6054 39.0791 32.5651 39.6307 33.3659 39.8883C34.1666 40.1459 34.6984 40.0795 35.0442 39.881C35.39 39.6824 35.7137 39.2576 35.8898 38.4392C36.0658 37.6208 36.0653 36.5185 35.8499 35.1816C35.4203 32.515 34.1711 29.1298 32.1729 25.6881C30.1748 22.2465 27.8513 19.478 25.7439 17.7747C24.6874 16.9208 23.7276 16.3692 22.9269 16.1116ZM27.0046 16.2263C29.3467 18.1192 31.8187 21.0946 33.9074 24.6923C35.9961 28.29 37.3513 31.9066 37.8288 34.8701C38.0669 36.3482 38.0956 37.7179 37.8495 38.8617C37.6035 40.0056 37.054 41.0332 36.0484 41.6106C35.0428 42.188 33.8731 42.1474 32.7539 41.7873C31.6348 41.4273 30.4563 40.7178 29.2881 39.7736C26.9461 37.8807 24.4741 34.9053 22.3854 31.3076C20.2967 27.7099 18.9414 24.0933 18.464 21.1298C18.2259 19.6517 18.1972 18.282 18.4432 17.1382C18.6892 15.9943 19.2387 14.9667 20.2444 14.3893C21.25 13.8119 22.4197 13.8525 23.5388 14.2126C24.6579 14.5726 25.8364 15.2821 27.0046 16.2263Z" fill="#61DAFB"/>
<path fill-rule="evenodd" clip-rule="evenodd" d="M35.8899 17.5606C35.7139 16.7423 35.3901 16.3174 35.0444 16.1189C34.6986 15.9204 34.1668 15.854 33.366 16.1115C32.5653 16.3692 31.6056 16.9208 30.549 17.7747C28.4416 19.4779 26.1182 22.2464 24.12 25.6881C22.1219 29.1297 20.8726 32.515 20.443 35.1815C20.2276 36.5184 20.2271 37.6207 20.4032 38.4392C20.5792 39.2576 20.903 39.6824 21.2487 39.8809C21.5945 40.0794 22.1264 40.1459 22.9271 39.8883C23.7278 39.6306 24.6876 39.079 25.7441 38.2251C27.8515 36.5219 30.175 33.7534 32.1731 30.3117C34.1712 26.8701 35.4205 23.4848 35.8501 20.8183C36.0655 19.4814 36.066 18.3791 35.8899 17.5606ZM37.8289 21.1298C37.3515 24.0932 35.9963 27.7099 33.9076 31.3075C31.8188 34.9052 29.3469 37.8807 27.0048 39.7736C25.8366 40.7177 24.6581 41.4273 23.539 41.7873C22.4198 42.1473 21.2502 42.1879 20.2445 41.6105C19.2389 41.0332 18.6894 40.0056 18.4434 38.8617C18.1974 37.7179 18.226 36.3482 18.4642 34.87C18.9416 31.9066 20.2968 28.2899 22.3856 24.6923C24.4743 21.0946 26.9463 18.1191 29.2883 16.2262C30.4565 15.2821 31.635 14.5725 32.7541 14.2125C33.8733 13.8525 35.0429 13.8119 36.0486 14.3893C37.0542 14.9666 37.6037 15.9943 37.8497 17.1381C38.0957 18.2819 38.0671 19.6516 37.8289 21.1298Z" fill="#61DAFB"/>
</svg>
