<svg width="78" height="20" viewBox="0 0 78 20" fill="none" xmlns="http://www.w3.org/2000/svg">
<path d="M31.4399 11.3956L30.0865 7.41886C30.0313 7.25621 29.8202 7.25621 29.7649 7.41886L28.4118 11.3958C28.4022 11.4241 28.399 11.4545 28.4025 11.4844C28.406 11.5143 28.4161 11.5429 28.4319 11.5676C28.4477 11.5923 28.4687 11.6125 28.4932 11.6265C28.5178 11.6405 28.545 11.6477 28.5727 11.6477H31.279C31.3066 11.6477 31.3339 11.6404 31.3584 11.6265C31.3829 11.6125 31.404 11.5923 31.4198 11.5675C31.4356 11.5428 31.4456 11.5142 31.4491 11.4843C31.4526 11.4544 31.4494 11.424 31.4397 11.3957M32.065 13.6309H27.7867C27.7517 13.6309 27.7176 13.6425 27.6888 13.6643C27.6601 13.6861 27.6382 13.717 27.626 13.7528L26.7837 16.2272C26.7715 16.263 26.7496 16.2938 26.7209 16.3156C26.6921 16.3374 26.658 16.3491 26.623 16.3491H24.7686C24.7406 16.3491 24.713 16.3416 24.6882 16.3272C24.6635 16.3129 24.6423 16.2922 24.6266 16.2669C24.6109 16.2416 24.6011 16.2124 24.5981 16.182C24.5952 16.1517 24.599 16.1209 24.6095 16.0926L28.8787 4.49912C28.8915 4.46449 28.9135 4.43483 28.9419 4.41395C28.9703 4.39307 29.0037 4.38193 29.038 4.38197H30.8135C30.8835 4.38197 30.9465 4.42833 30.9727 4.49912L35.2418 16.0925C35.2523 16.1208 35.2562 16.1516 35.2533 16.182C35.2503 16.2124 35.2405 16.2416 35.2248 16.2669C35.2091 16.2923 35.1879 16.313 35.1632 16.3274C35.1384 16.3417 35.1107 16.3492 35.0827 16.3492H33.2287C33.1937 16.3492 33.1595 16.3375 33.1308 16.3157C33.102 16.2939 33.0801 16.263 33.0679 16.2272L32.2255 13.7528C32.2134 13.717 32.1914 13.6861 32.1627 13.6643C32.134 13.6425 32.0998 13.6309 32.0648 13.6309M36.1106 8.45068H37.6966C37.7421 8.45068 37.7857 8.47038 37.8179 8.50544C37.8501 8.5405 37.8681 8.58805 37.8681 8.63763V16.1621C37.8681 16.2117 37.8501 16.2593 37.8179 16.2943C37.7857 16.3294 37.7421 16.3491 37.6966 16.3491H36.1106C36.0651 16.3491 36.0215 16.3294 35.9894 16.2943C35.9572 16.2593 35.9391 16.2117 35.9391 16.1621V8.63751C35.9391 8.58792 35.9572 8.54037 35.9894 8.50531C36.0215 8.47025 36.0651 8.45056 36.1106 8.45056M43.6524 10.281C43.6524 10.3306 43.6343 10.3782 43.6021 10.4132C43.57 10.4483 43.5264 10.468 43.4809 10.468H43.4329C42.6487 10.468 42.0735 10.6731 41.7076 11.0834C41.3415 11.4937 41.1588 12.1719 41.1588 13.1179V16.1621C41.1588 16.2117 41.1407 16.2593 41.1086 16.2943C41.0764 16.3294 41.0328 16.3491 40.9873 16.3491H39.4169C39.3714 16.3491 39.3278 16.3294 39.2956 16.2943C39.2634 16.2593 39.2454 16.2117 39.2454 16.1621V8.63751C39.2454 8.58792 39.2634 8.54037 39.2956 8.50531C39.3278 8.47025 39.3714 8.45056 39.4169 8.45056H40.9715C41.017 8.45056 41.0606 8.47025 41.0928 8.50531C41.125 8.54037 41.143 8.58792 41.143 8.63751V10.1259H41.1745C41.3627 9.51042 41.6606 9.0377 42.0685 8.70692C42.4761 8.37653 42.978 8.21114 43.5739 8.21114H43.6524V10.2809V10.281ZM47.989 10.2115C47.9435 10.2115 47.8999 10.2312 47.8677 10.2662C47.8355 10.3013 47.8175 10.3488 47.8175 10.3984V13.5282C47.8175 13.8473 47.8746 14.0753 47.9899 14.212C48.1048 14.3487 48.3035 14.4172 48.5858 14.4172H48.7437C48.7891 14.4172 48.8328 14.4369 48.8649 14.4719C48.8971 14.507 48.9152 14.5545 48.9152 14.6041V16.1791C48.9152 16.2287 48.8971 16.2762 48.8649 16.3113C48.8328 16.3463 48.7891 16.366 48.7437 16.366H48.0682C47.3677 16.366 46.8293 16.1695 46.4529 15.7763C46.0764 15.3831 45.8882 14.7992 45.8882 14.0239V10.3984C45.8882 10.3488 45.8702 10.3013 45.838 10.2662C45.8058 10.2312 45.7622 10.2115 45.7167 10.2115H44.7267C44.6813 10.2115 44.6376 10.1918 44.6055 10.1567C44.5733 10.1217 44.5553 10.0741 44.5553 10.0245V8.63751C44.5553 8.58792 44.5733 8.54037 44.6055 8.50531C44.6376 8.47025 44.6813 8.45056 44.7267 8.45056H45.7169C45.7623 8.45056 45.806 8.43086 45.8381 8.3958C45.8703 8.36074 45.8884 8.31319 45.8884 8.26361V5.47473C45.8884 5.42515 45.9064 5.3776 45.9386 5.34254C45.9707 5.30748 46.0144 5.28779 46.0598 5.28779H47.6459C47.6913 5.28779 47.735 5.30748 47.7671 5.34254C47.7993 5.3776 47.8174 5.42515 47.8174 5.47473V8.26361C47.8174 8.31319 47.8354 8.36074 47.8676 8.3958C47.8997 8.43086 47.9434 8.45056 47.9888 8.45056H49.1357C49.1812 8.45056 49.2248 8.47025 49.257 8.50531C49.2891 8.54037 49.3072 8.58792 49.3072 8.63751V10.0247C49.3072 10.0742 49.2891 10.1218 49.257 10.1568C49.2248 10.1919 49.1812 10.2116 49.1357 10.2116H47.989V10.2115ZM55.2514 14.0069C55.6121 13.5966 55.7924 13.0609 55.7924 12.3998C55.7924 11.739 55.6121 11.203 55.2514 10.7928C54.8907 10.3825 54.4175 10.1773 53.832 10.1773C53.2464 10.1773 52.7735 10.3825 52.4127 10.7928C52.0521 11.203 51.8717 11.739 51.8717 12.3998C51.8717 13.0609 52.0521 13.5966 52.4127 14.0069C52.7735 14.4172 53.2464 14.6223 53.832 14.6223C54.4175 14.6223 54.8907 14.4172 55.2514 14.0069ZM51.5894 16.1097C51.0561 15.7793 50.6352 15.2976 50.3269 14.6651C50.0183 14.0325 49.8642 13.2775 49.8642 12.3998C49.8642 11.5223 50.0183 10.7671 50.3269 10.1346C50.6352 9.50207 51.0561 9.02075 51.5894 8.68997C52.1226 8.35945 52.708 8.19419 53.3458 8.19419C53.9104 8.19419 54.3939 8.31384 54.7967 8.55313C55.1989 8.79242 55.5204 9.1288 55.7611 9.5619H55.7924V8.63751C55.7924 8.58792 55.8105 8.54037 55.8426 8.50531C55.8748 8.47025 55.9184 8.45056 55.9639 8.45056H57.5342C57.5797 8.45056 57.6234 8.47025 57.6555 8.50531C57.6877 8.54037 57.7057 8.58792 57.7057 8.63751V16.162C57.7057 16.2116 57.6877 16.2591 57.6555 16.2942C57.6234 16.3293 57.5797 16.3489 57.5342 16.3489H55.9639C55.9184 16.3489 55.8748 16.3293 55.8426 16.2942C55.8105 16.2591 55.7924 16.2116 55.7924 16.162V15.2377H55.7611C55.5204 15.6711 55.1989 16.0071 54.7966 16.2464C54.3939 16.4857 53.9105 16.6053 53.3458 16.6053C52.708 16.6053 52.1226 16.4401 51.5894 16.1097ZM64.2367 14.0069C64.5974 13.5966 64.7777 13.0609 64.7777 12.3998C64.7777 11.739 64.5974 11.203 64.2367 10.7928C63.8761 10.3825 63.4029 10.1773 62.8174 10.1773C62.2318 10.1773 61.7588 10.3825 61.3981 10.7928C61.0375 11.203 60.8569 11.739 60.8569 12.3998C60.8569 13.0609 61.0375 13.5966 61.3981 14.0069C61.7588 14.4172 62.2318 14.6223 62.8174 14.6223C63.4029 14.6223 63.8761 14.4172 64.2367 14.0069ZM61.8529 16.2464C61.4503 16.0071 61.1287 15.6711 60.8884 15.2377H60.8569V16.162C60.8569 16.2116 60.8389 16.2591 60.8067 16.2942C60.7745 16.3293 60.7309 16.3489 60.6854 16.3489H59.0994C59.054 16.3489 59.0103 16.3293 58.9782 16.2942C58.946 16.2591 58.9279 16.2116 58.9279 16.162V4.56854C58.9279 4.51896 58.946 4.47141 58.9782 4.43635C59.0103 4.40129 59.054 4.38159 59.0994 4.38159H60.6854C60.7309 4.38159 60.7745 4.40129 60.8067 4.43635C60.8389 4.47141 60.8569 4.51896 60.8569 4.56854V9.56177H60.8884C61.1287 9.12868 61.4503 8.79242 61.8529 8.55313C62.2553 8.31371 62.7389 8.19407 63.3036 8.19407C63.9413 8.19407 64.5269 8.35933 65.0601 8.68985C65.5933 9.02062 66.0141 9.50195 66.3226 10.1343C66.6309 10.7672 66.7854 11.5225 66.7854 12.3999C66.7854 13.2777 66.6309 14.0325 66.3227 14.6652C66.0142 15.2977 65.5935 15.7794 65.0602 16.1097C64.527 16.4402 63.9414 16.6056 63.3037 16.6056C62.7391 16.6056 62.2554 16.4859 61.853 16.2465M69.4575 16.3491H67.8715C67.826 16.3491 67.7824 16.3294 67.7502 16.2943C67.7181 16.2593 67.7 16.2117 67.7 16.1621V4.56891C67.7 4.51933 67.7181 4.47178 67.7502 4.43672C67.7824 4.40166 67.826 4.38197 67.8715 4.38197H69.4575C69.503 4.38197 69.5466 4.40166 69.5788 4.43672C69.6109 4.47178 69.629 4.51933 69.629 4.56891V16.1621C69.629 16.2117 69.6109 16.2593 69.5788 16.2943C69.5466 16.3294 69.503 16.3491 69.4575 16.3491ZM73.1987 10.28C72.9357 10.5036 72.7581 10.8264 72.6662 11.2487C72.641 11.3651 72.7243 11.4767 72.8341 11.4767H75.8524C75.9571 11.4767 76.0395 11.3745 76.0225 11.2619C75.9622 10.8624 75.8051 10.544 75.5511 10.3057C75.2532 10.0265 74.8636 9.88693 74.3827 9.88693C73.9017 9.88693 73.5069 10.0179 73.1987 10.28ZM77.0645 9.29693C77.6814 10.0323 77.9898 11.0723 77.9898 12.417V12.6403C77.9898 12.6899 77.9718 12.7374 77.9396 12.7725C77.9074 12.8075 77.8638 12.8272 77.8183 12.8272H72.7759C72.7507 12.8273 72.7259 12.8333 72.7032 12.8449C72.6804 12.8565 72.6603 12.8734 72.6441 12.8943C72.6279 12.9153 72.6161 12.9398 72.6096 12.9662C72.603 12.9927 72.6018 13.0204 72.6061 13.0473C72.6867 13.5469 72.8894 13.9437 73.2143 14.2377C73.5853 14.5742 74.0534 14.7421 74.618 14.7421C75.3468 14.7421 76.0215 14.432 76.6419 13.8117C76.7177 13.7359 76.8378 13.752 76.8966 13.8441L77.6676 15.0505C77.6918 15.0881 77.7025 15.134 77.6976 15.1795C77.6928 15.225 77.6728 15.2671 77.6413 15.2976C77.2629 15.6587 76.8422 15.9634 76.3901 16.2038C75.8882 16.4715 75.2974 16.6056 74.618 16.6056C73.8339 16.6056 73.1488 16.4316 72.5634 16.0841C71.9777 15.7366 71.523 15.2466 71.1991 14.6138C70.8749 13.9813 70.7129 13.2491 70.7129 12.417C70.7129 11.5852 70.8697 10.8501 71.1833 10.2116C71.4969 9.57349 71.9361 9.0777 72.5008 8.72425C73.0653 8.37117 73.724 8.19432 74.4769 8.19432C75.5848 8.19432 76.4475 8.56198 77.0645 9.29693ZM38.0753 5.66891C38.0753 6.37407 37.5509 6.94576 36.9039 6.94576C36.2567 6.94576 35.7323 6.37407 35.7323 5.66878C35.7323 4.9635 36.2569 4.39181 36.9039 4.39181C37.5509 4.39181 38.0753 4.9635 38.0753 5.66878" fill="#333333"/>
<path d="M9.27667 1.0101L1.73538 4.41166C1.31601 4.60085 1.32036 5.25031 1.74235 5.43264L9.31508 8.70621C9.98044 8.99387 10.7214 8.99387 11.3868 8.70621L18.9596 5.43252C19.3815 5.25031 19.3861 4.60098 18.9665 4.41179L11.4254 1.00998C10.7374 0.699637 9.96455 0.699637 9.27655 1.00998" fill="#FCB400"/>
<path d="M11.0229 10.4937V18.6716C11.0229 19.0605 11.3827 19.3269 11.7144 19.1836L20.1528 15.6132C20.2469 15.5725 20.3276 15.5019 20.3845 15.4106C20.4414 15.3194 20.4718 15.2115 20.4717 15.1012V6.92336C20.4717 6.53439 20.1119 6.26805 19.7803 6.41138L11.3419 9.98182C11.2478 10.0225 11.1671 10.0931 11.1102 10.1844C11.0534 10.2756 11.023 10.3835 11.0229 10.4938" fill="#18BFFF"/>
<path d="M9.05199 10.9155L6.54768 12.2336L6.29341 12.3676L1.00696 15.1288C0.671968 15.305 0.244141 15.0388 0.244141 14.633V6.95746C0.244141 6.81065 0.313197 6.6839 0.405805 6.58855C0.443797 6.54731 0.486899 6.51207 0.533856 6.48386C0.660078 6.40123 0.840264 6.37917 0.993468 6.44523L9.00992 9.90774C9.4174 10.084 9.44941 10.7064 9.05199 10.9156" fill="#F82B60"/>
<path d="M9.05146 10.9155L6.54715 12.2336L0.405273 6.58843C0.443273 6.54723 0.486375 6.51204 0.533324 6.48386C0.659546 6.40123 0.839732 6.37917 0.992936 6.44523L9.00939 9.90774C9.41686 10.084 9.44888 10.7064 9.05146 10.9156" fill="black" fill-opacity="0.25"/>
</svg>
