<svg width="57" height="56" viewBox="0 0 57 56" fill="none" xmlns="http://www.w3.org/2000/svg">
<path d="M20.0293 23.5323H25.8971V23.9965H20.5672V27.4898H25.5793V27.9539H20.5672V31.7892H25.9583V32.2534H20.0293V23.5323ZM26.4228 23.5323H27.0463L29.809 27.3676L32.6329 23.5323L36.4739 18.6606L30.1635 27.7707L33.4153 32.2534H32.7674L29.809 28.1738L26.8384 32.2534H26.2028L29.479 27.7707L26.4228 23.5323ZM33.6476 23.9965V23.5323H40.3345V23.9965H37.2539V32.2534H36.716V23.9965H33.6476Z" fill="black"/>
<path d="M12.6885 23.5323H13.3608L22.6322 37.3395L18.8008 32.2534L13.2508 24.1919L13.2264 32.2534H12.6885V23.5323Z" fill="black"/>
<path d="M40.2802 31.6492C40.3914 31.6492 40.4725 31.5644 40.4725 31.4549C40.4725 31.3454 40.3914 31.2607 40.2802 31.2607C40.1703 31.2607 40.0879 31.3454 40.0879 31.4549C40.0879 31.5644 40.1703 31.6492 40.2802 31.6492ZM40.8087 31.1381C40.8087 31.4615 41.0429 31.6727 41.3844 31.6727C41.7481 31.6727 41.9679 31.4549 41.9679 31.0769V29.7458H41.6748V31.0756C41.6748 31.2855 41.5688 31.3976 41.3818 31.3976C41.2143 31.3976 41.1005 31.2933 41.0966 31.1381H40.8087ZM42.3512 31.1212C42.3721 31.4575 42.6534 31.6727 43.072 31.6727C43.5195 31.6727 43.7994 31.4471 43.7994 31.0873C43.7994 30.8044 43.6398 30.648 43.2526 30.558L43.0446 30.5072C42.7986 30.4498 42.6992 30.3729 42.6992 30.2386C42.6992 30.0691 42.8536 29.9583 43.0851 29.9583C43.3049 29.9583 43.4567 30.0665 43.4841 30.2399H43.7693C43.7523 29.9231 43.4724 29.7002 43.089 29.7002C42.6769 29.7002 42.4022 29.9231 42.4022 30.2582C42.4022 30.5345 42.5579 30.6988 42.8993 30.7783L43.1427 30.837C43.3926 30.8957 43.5024 30.9817 43.5024 31.1251C43.5024 31.292 43.3298 31.4132 43.0943 31.4132C42.8418 31.4132 42.6665 31.2998 42.6416 31.1212H42.3512Z" fill="black"/>
</svg>
